<svg xmlns="http://www.w3.org/2000/svg" viewBox="0 0 87 87"><defs><style>.cls-1{fill:#fefefe;}.cls-2{fill:#1a5783;}.cls-3{fill:#44657b;}.cls-4{fill:#b8d4e4;}.cls-5{fill:#76c2ed;}.cls-6{fill:#78c3ed;}.cls-7{fill:#8cc7e5;}.cls-8{fill:#86c6e9;}</style></defs><title>erp-icon</title><g id="Layer_2" data-name="Layer 2"><g id="Layer_1-2" data-name="Layer 1"><path class="cls-1" d="M54.35,87H0V0H87V87H65.52l3.06-1.39c2.1-.5,4.22-.94,6.3-1.51,2.87-.77,5.88-1,8.58-2.39,1-.33,2-.65,2.94-1,.19-.07.31-.33.46-.5-.19-.11-.38-.31-.57-.31-4.21,0-8.43,0-12.64,0-.64-.21-1.29-.4-1.92-.64-2.6-1-5.27-1.87-7.77-3.1a21.81,21.81,0,0,1-8.76-8c-5.6-8.7-7-18.2-5.14-28.28A56.56,56.56,0,0,1,56.45,22.7,51,51,0,0,1,69.6,7.3a65.43,65.43,0,0,1,9.8-6.14c.27-.14.42-.49.63-.74a3.46,3.46,0,0,0-1-.16c-1.11.16-2.23.33-3.32.58-1.83.42-3.65.91-5.48,1.36a3.61,3.61,0,0,0-.66,0A47.73,47.73,0,0,0,41.88,19.39a66.35,66.35,0,0,0-10.58,20,6.74,6.74,0,0,1-1.56-1.2,41.18,41.18,0,0,0-8.24-8.84,23.18,23.18,0,0,0-6.78-3.83c-1.6-.6-3.2-1.22-4.8-1.8-.16-.06-.38.08-.57.13.09.26.11.65.29.76,1.34.84,2.71,1.61,4.07,2.4.32.32.65.63,1,.95,2,2.13,4.27,4.12,6.09,6.44a34.46,34.46,0,0,1,7.3,19.47,24.77,24.77,0,0,1-2.19,11.77C22.05,74.24,15.44,78.86,6.1,79.56c-1.68.13-3.37.22-5,.36-.24,0-.61.17-.67.34A.87.87,0,0,0,.67,81a4,4,0,0,0,1.2.77,27.62,27.62,0,0,0,13.87,1.41,22.74,22.74,0,0,0,16.06-10,15.69,15.69,0,0,1,1.71-1.85A29.2,29.2,0,0,0,52.24,85.84c.66.18,1.31.43,2,.64Z"/><path class="cls-2" d="M54.21,86.48c-.66-.21-1.31-.46-2-.64A29.2,29.2,0,0,1,33.51,71.25a13.6,13.6,0,0,1,.46-2,30.65,30.65,0,0,0,2.25-10.73,33.37,33.37,0,0,0-2.58-13.12c-.79-2-1.56-4-2.34-5.94a66.35,66.35,0,0,1,10.58-20A47.73,47.73,0,0,1,69.59,2.23a3.61,3.61,0,0,1,.66,0c-1.06.73-2.07,1.54-3.19,2.17a57.59,57.59,0,0,0-11.58,8.45,56.13,56.13,0,0,0-13,19.06c-3,7.13-4.71,14.51-4.07,22.32a44,44,0,0,0,1.72,9.25A28.67,28.67,0,0,0,51.66,79.62a35.3,35.3,0,0,0,13.79,5.19c1.06.19,2.08.53,3.13.8L65.52,87h-.33a1.6,1.6,0,0,0-.2-.34c-1.15-1.15-2.65-.62-4-.8a14.21,14.21,0,0,0-3.25.13C56.56,86.11,55.39,86.32,54.21,86.48Z"/><path class="cls-3" d="M54.21,86.48c1.18-.16,2.35-.37,3.54-.49A14.21,14.21,0,0,1,61,85.86c1.34.18,2.84-.35,4,.8a1.6,1.6,0,0,1,.2.34H62.65c-1.7-.93-3.39-.35-5.08,0H54.35Z"/><path class="cls-4" d="M57.57,87c1.69-.35,3.38-.93,5.08,0Z"/><path class="cls-5" d="M68.58,85.61c-1-.27-2.07-.61-3.13-.8a35.3,35.3,0,0,1-13.79-5.19A28.67,28.67,0,0,1,40.13,63.45a44,44,0,0,1-1.72-9.25c-.64-7.81,1-15.19,4.07-22.32a56.13,56.13,0,0,1,13-19.06A57.59,57.59,0,0,1,67.06,4.37c1.12-.63,2.13-1.44,3.19-2.17,1.83-.45,3.65-.94,5.48-1.36C76.82.59,77.94.42,79.05.26a3.46,3.46,0,0,1,1,.16c-.21.25-.36.6-.63.74A65.43,65.43,0,0,0,69.6,7.3,51,51,0,0,0,56.45,22.7a56.56,56.56,0,0,0-6.39,17.18C48.17,50,49.6,59.46,55.2,68.16a21.81,21.81,0,0,0,8.76,8c2.5,1.23,5.17,2.09,7.77,3.1.63.24,1.28.43,1.92.64a5.74,5.74,0,0,0,1.79.79c2,.1,4.1,0,6.15,0a1.83,1.83,0,0,1,1.87,1c-2.7,1.35-5.71,1.62-8.58,2.39C72.8,84.67,70.68,85.11,68.58,85.61Z"/><path class="cls-6" d="M31.3,39.43c.78,2,1.55,4,2.34,5.94a33.37,33.37,0,0,1,2.58,13.12A30.65,30.65,0,0,1,34,69.22a13.6,13.6,0,0,0-.46,2A15.69,15.69,0,0,0,31.8,73.1a22.74,22.74,0,0,1-16.06,10A27.62,27.62,0,0,1,1.87,81.72,4,4,0,0,1,.67,81a.87.87,0,0,1-.29-.69c.06-.17.43-.32.67-.34,1.68-.14,3.37-.23,5.05-.36,9.34-.7,16-5.32,19.77-13.88a24.77,24.77,0,0,0,2.19-11.77,34.46,34.46,0,0,0-7.3-19.47c-1.82-2.32-4.05-4.31-6.09-6.44-.31-.32-.64-.63-1-.95-.1-.4-.21-.81-.31-1.23l1.32-.26a23.18,23.18,0,0,1,6.78,3.83,41.18,41.18,0,0,1,8.24,8.84A6.74,6.74,0,0,0,31.3,39.43Z"/><path class="cls-7" d="M83.46,81.71a1.83,1.83,0,0,0-1.87-1c-2,0-4.1.06-6.15,0a5.74,5.74,0,0,1-1.79-.79c4.21,0,8.43,0,12.64,0,.19,0,.38.2.57.31-.15.17-.27.43-.46.5C85.43,81.06,84.44,81.38,83.46,81.71Z"/><path class="cls-8" d="M14.72,25.56l-1.32.26c.1.42.21.83.31,1.23-1.36-.79-2.73-1.56-4.07-2.4-.18-.11-.2-.5-.29-.76.19-.05.41-.19.57-.13C11.52,24.34,13.12,25,14.72,25.56Z"/></g></g></svg>